<?xml version="1.0" encoding="UTF-8"?>
<svg xmlns="http://www.w3.org/2000/svg" xmlns:xlink="http://www.w3.org/1999/xlink" width="800px" height="800px" viewBox="0 0 600 600" version="1.1">
<g id="surface1">
<path style=" stroke:none;fill-rule:nonzero;fill:rgb(0%,0%,0%);fill-opacity:1;" d="M 514.320312 355.773438 C 586.761719 287.164062 583.914062 222.507812 579.160156 197.457031 C 573.28125 166.472656 555.992188 142.304688 532.574219 131.980469 C 523.386719 94.5 478.425781 82.492188 476.457031 81.957031 L 460.527344 77.867188 L 468.964844 92.042969 C 469.210938 92.484375 494.457031 135.617188 484.117188 177.609375 L 480.628906 191.765625 L 493.667969 185.351562 C 504.28125 180.113281 513.253906 172.265625 516.207031 169.5 C 518.933594 168.910156 524.195312 171.863281 527.90625 177.355469 C 530.117188 180.636719 536.511719 192.054688 525.601562 201.710938 C 517.199219 209.164062 492.769531 201.09375 466.914062 192.535156 C 443.410156 184.773438 417.054688 176.054688 390.421875 173.785156 C 400.902344 120.703125 418.246094 68.851562 418.425781 68.296875 L 422.476562 56.25 L 410.25 59.570312 C 309.488281 86.832031 259.574219 156.355469 238.246094 197.109375 C 116.839844 237.429688 18.75 319.386719 18.75 352.078125 C 18.75 386.925781 99.46875 452.878906 142.132812 452.878906 C 146.351562 452.878906 150.234375 452.257812 153.675781 451.03125 C 165.382812 446.878906 176.945312 441.5625 188.277344 435.601562 C 175.96875 470.242188 170.757812 500.476562 170.597656 501.460938 L 170.015625 501.648438 L 182.082031 509.351562 C 196.191406 518.363281 214.199219 522.9375 235.613281 522.9375 L 235.621094 522.9375 C 295.867188 522.917969 376.59375 486.554688 437.679688 432.207031 C 508.566406 452.148438 561.308594 522.863281 561.835938 523.574219 L 576.675781 543.75 L 574.023438 518.8125 C 573.488281 513.796875 560.898438 399.9375 514.320312 355.773438 M 190.292969 457.164062 L 219.441406 483.421875 L 218.550781 474.300781 C 217.304688 462.710938 215.914062 447.496094 215.914062 447.496094 L 244.351562 471.9375 C 229.453125 479.679688 212.859375 486.824219 194.558594 493.339844 C 193.875 487.847656 191.625 469.613281 190.292969 457.164062 M 200.210938 443.757812 L 191.035156 434.089844 C 193.902344 432.554688 196.773438 431.054688 199.601562 429.402344 C 199.40625 429.863281 199.179688 430.359375 198.992188 430.828125 L 200.210938 443.757812 M 213.910156 420.703125 C 217.445312 418.453125 220.914062 416.109375 224.363281 413.765625 L 227.738281 432.132812 L 213.910156 420.703125 M 307.339844 343.960938 C 312.214844 339.074219 316.601562 334.527344 320.605469 330.320312 L 325.632812 363.148438 L 307.339844 343.960938 M 334.734375 378.382812 C 333.648438 381.945312 332.378906 385.445312 330.929688 388.875 C 328.96875 393.488281 326.625 397.976562 324.054688 402.382812 L 311.832031 368.054688 L 334.734375 378.382812 M 320.539062 408.101562 C 315.25 416.152344 309.179688 423.660156 302.417969 430.519531 L 291.429688 394.058594 L 320.539062 408.101562 M 287.15625 363.320312 C 291.28125 359.53125 295.273438 355.773438 299.035156 352.132812 L 303.429688 376.246094 L 287.15625 363.320312 M 297.507812 435.355469 C 290.652344 441.757812 283.355469 447.671875 275.671875 453.046875 L 269.035156 417.507812 L 297.507812 435.355469 M 263.457031 384.121094 C 267.488281 380.773438 271.40625 377.398438 275.210938 374.070312 L 280.085938 399.488281 L 263.457031 384.121094 M 271.714844 455.804688 C 264.335938 460.777344 256.710938 465.382812 248.867188 469.59375 L 243.523438 434.222656 L 271.714844 455.804688 M 238.191406 403.949219 C 242.03125 401.121094 245.828125 398.234375 249.582031 395.289062 L 252.824219 417.648438 L 238.191406 403.949219 M 235.621094 509.324219 C 223.554688 509.324219 212.820312 507.730469 203.539062 504.582031 C 276.710938 477.742188 323.746094 440.570312 343.492188 393.945312 C 365.230469 342.617188 345.113281 299.464844 344.242188 297.65625 L 339.664062 288.09375 L 332.925781 296.257812 C 332.023438 297.335938 242.429688 405.027344 149.148438 438.207031 C 146.882812 438.957031 144.507812 439.316406 142.125 439.265625 C 106.667969 439.265625 36.898438 380.617188 32.503906 354.523438 C 40.742188 350.4375 73.058594 343.882812 115.3125 343.882812 C 139.445312 343.882812 174.882812 346.132812 206.652344 356.851562 C 213.214844 359.136719 220.105469 360.328125 227.054688 360.382812 C 264.523438 360.382812 287.117188 322.941406 305.277344 292.835938 C 316.539062 274.179688 328.179688 254.878906 338.230469 254.878906 C 339.054688 254.878906 339.863281 254.992188 340.726562 255.226562 C 353.832031 258.957031 358.03125 282.675781 362.878906 310.132812 C 370.199219 351.496094 379.191406 402.328125 423.835938 426.335938 C 366.402344 475.527344 290.316406 509.304688 235.621094 509.324219 M 438.488281 418.226562 C 392.445312 399.460938 383.8125 350.757812 376.210938 307.761719 C 370.554688 275.792969 365.671875 248.195312 344.398438 242.15625 C 342.390625 241.574219 340.3125 241.277344 338.222656 241.273438 C 320.53125 241.273438 308.089844 261.910156 293.691406 285.789062 C 276.429688 314.390625 256.882812 346.78125 227.054688 346.78125 C 221.578125 346.714844 216.148438 345.761719 210.976562 343.960938 C 177.449219 332.664062 140.457031 330.300781 115.3125 330.300781 C 114.617188 330.300781 65.605469 330.777344 37.679688 338.652344 C 58.914062 306.007812 141.347656 243 245.070312 209.175781 L 247.734375 208.3125 L 249.007812 205.800781 C 267.742188 169.070312 312.007812 104.867188 401.664062 76.257812 C 395.691406 95.445312 384.28125 134.371094 376.707031 173.597656 C 304.753906 175.902344 264.449219 201.628906 264.46875 201.648438 C 264.46875 201.648438 317.289062 187.78125 381.335938 186.871094 L 382.085938 186.910156 C 409.445312 187.867188 437.738281 197.222656 462.695312 205.460938 C 494.90625 216.101562 520.320312 224.503906 534.5625 211.921875 C 548.878906 199.246094 547.171875 181.585938 539.109375 169.695312 C 531.140625 157.941406 518.644531 152.851562 509.417969 157.613281 L 507.789062 158.804688 C 507.730469 158.839844 504.554688 161.933594 499.78125 165.542969 C 501.976562 140.054688 494.710938 116.304688 488.484375 101.289062 C 500.878906 107.605469 516.757812 119.175781 520.011719 138.074219 L 520.667969 141.9375 L 524.335938 143.296875 C 544.753906 150.898438 560.664062 172.632812 565.847656 200.007812 C 570.214844 223.003906 572.464844 282.882812 503.164062 347.464844 C 489.703125 346.125 468.871094 350.410156 468.871094 350.410156 C 479.617188 350.410156 489.195312 353.925781 497.832031 359.691406 L 499.996094 361.359375 C 534.195312 387.582031 550.621094 459.214844 557.082031 496.714844 C 535.21875 472.554688 492.1875 432.273438 438.488281 418.226562 "/>
<path style=" stroke:none;fill-rule:nonzero;fill:rgb(0%,0%,0%);fill-opacity:1;" d="M 201.039062 244.976562 C 173.699219 265.921875 175.472656 287.148438 151.414062 293.644531 C 151.414062 293.644531 182.382812 300 201.347656 276.984375 C 204.253906 290.738281 216.378906 300.585938 230.4375 300.609375 C 244.902344 300.589844 257.269531 290.207031 259.792969 275.964844 C 262.3125 261.722656 254.261719 247.722656 240.683594 242.738281 C 253.023438 239.023438 267.132812 238.265625 283.246094 237.429688 C 283.238281 237.414062 228.394531 224.015625 201.039062 244.976562 "/>
<path style=" stroke:none;fill-rule:nonzero;fill:rgb(0%,0%,0%);fill-opacity:1;" d="M 418.78125 204.863281 C 430.445312 216.066406 422.269531 235.3125 419.765625 244.921875 C 417.308594 254.410156 404.953125 262.386719 404.953125 262.386719 C 414.675781 260.445312 422.839844 260.371094 428.886719 237.046875 C 434.933594 213.777344 418.78125 204.863281 418.78125 204.863281 "/>
<path style=" stroke:none;fill-rule:nonzero;fill:rgb(0%,0%,0%);fill-opacity:1;" d="M 439.03125 213.589844 C 449.710938 225.863281 439.976562 244.257812 436.6875 253.527344 C 433.425781 262.773438 420.429688 269.550781 420.429688 269.550781 C 430.285156 268.546875 438.414062 269.257812 446.390625 246.609375 C 454.414062 223.996094 439.03125 213.589844 439.03125 213.589844 "/>
<path style=" stroke:none;fill-rule:nonzero;fill:rgb(0%,0%,0%);fill-opacity:1;" d="M 456.992188 220.238281 C 468 232.210938 458.679688 250.902344 455.652344 260.269531 C 452.652344 269.605469 439.882812 276.75 439.882812 276.75 C 449.664062 275.464844 457.835938 275.925781 465.207031 253.058594 C 472.613281 230.203125 456.992188 220.238281 456.992188 220.238281 "/>
<path style=" stroke:none;fill-rule:nonzero;fill:rgb(0%,0%,0%);fill-opacity:1;" d="M 141.957031 360.441406 C 150.617188 363.335938 147.039062 372.085938 157.199219 372.085938 C 167.382812 372.085938 174.132812 364.304688 168.589844 360.308594 C 156.046875 351.328125 141.957031 360.441406 141.957031 360.441406 "/>
</g>
</svg>
