<svg width="222" height="28" viewBox="0 0 222 28" fill="none" xmlns="http://www.w3.org/2000/svg">
<path d="M5.55859 1.40625V27H0.285156V1.40625H5.55859ZM20.8867 1.40625L10.7441 14.0449L4.89062 20.3379L3.94141 15.3457L7.89648 9.93164L14.418 1.40625H20.8867ZM14.8926 27L7.35156 15.1699L11.2539 11.9004L21.1328 27H14.8926ZM28.1992 0V27H23.1191V0H28.1992ZM41.1367 27.3516C39.6602 27.3516 38.3359 27.1172 37.1641 26.6484C35.9922 26.168 34.9961 25.5059 34.1758 24.6621C33.3672 23.8184 32.7461 22.8398 32.3125 21.7266C31.8789 20.6016 31.6621 19.4062 31.6621 18.1406V17.4375C31.6621 15.9961 31.8672 14.6777 32.2773 13.4824C32.6875 12.2871 33.2734 11.25 34.0352 10.3711C34.8086 9.49219 35.7461 8.81836 36.8477 8.34961C37.9492 7.86914 39.1914 7.62891 40.5742 7.62891C41.9219 7.62891 43.1172 7.85156 44.1602 8.29688C45.2031 8.74219 46.0762 9.375 46.7793 10.1953C47.4941 11.0156 48.0332 12 48.3965 13.1484C48.7598 14.2852 48.9414 15.5508 48.9414 16.9453V19.0547H33.8242V15.6797H43.9668V15.293C43.9668 14.5898 43.8379 13.9629 43.5801 13.4121C43.334 12.8496 42.959 12.4043 42.4551 12.0762C41.9512 11.748 41.3066 11.584 40.5215 11.584C39.8535 11.584 39.2793 11.7305 38.7988 12.0234C38.3184 12.3164 37.9258 12.7266 37.6211 13.2539C37.3281 13.7812 37.1055 14.4023 36.9531 15.1172C36.8125 15.8203 36.7422 16.5938 36.7422 17.4375V18.1406C36.7422 18.9023 36.8477 19.6055 37.0586 20.25C37.2812 20.8945 37.5918 21.4512 37.9902 21.9199C38.4004 22.3887 38.8926 22.752 39.4668 23.0098C40.0527 23.2676 40.7148 23.3965 41.4531 23.3965C42.3672 23.3965 43.2168 23.2207 44.002 22.8691C44.7988 22.5059 45.4844 21.9609 46.0586 21.2344L48.5195 23.9062C48.1211 24.4805 47.5762 25.0312 46.8848 25.5586C46.2051 26.0859 45.3848 26.5195 44.4238 26.8594C43.4629 27.1875 42.3672 27.3516 41.1367 27.3516ZM51.8242 0H56.8867V22.6406L56.377 27H51.8242V0ZM68.9277 17.2969V17.666C68.9277 19.084 68.7754 20.3848 68.4707 21.5684C68.1777 22.752 67.7207 23.7773 67.0996 24.6445C66.4785 25.5 65.7051 26.168 64.7793 26.6484C63.8652 27.1172 62.7871 27.3516 61.5449 27.3516C60.3848 27.3516 59.377 27.1172 58.5215 26.6484C57.6777 26.1797 56.9688 25.5176 56.3945 24.6621C55.8203 23.8066 55.3574 22.8047 55.0059 21.6562C54.6543 20.5078 54.3906 19.2539 54.2148 17.8945V17.0859C54.3906 15.7266 54.6543 14.4727 55.0059 13.3242C55.3574 12.1758 55.8203 11.1738 56.3945 10.3184C56.9688 9.46289 57.6777 8.80078 58.5215 8.33203C59.3652 7.86328 60.3613 7.62891 61.5098 7.62891C62.7637 7.62891 63.8535 7.86914 64.7793 8.34961C65.7168 8.81836 66.4902 9.48633 67.0996 10.3535C67.7207 11.209 68.1777 12.2285 68.4707 13.4121C68.7754 14.584 68.9277 15.8789 68.9277 17.2969ZM63.8652 17.666V17.2969C63.8652 16.5234 63.8066 15.7969 63.6895 15.1172C63.584 14.4258 63.3965 13.8223 63.127 13.3066C62.8574 12.7793 62.4883 12.3633 62.0195 12.0586C61.5625 11.7539 60.9707 11.6016 60.2441 11.6016C59.5527 11.6016 58.9668 11.7188 58.4863 11.9531C58.0059 12.1875 57.6074 12.5156 57.291 12.9375C56.9863 13.3594 56.7578 13.8633 56.6055 14.4492C56.4531 15.0234 56.3594 15.6562 56.3242 16.3477V18.6504C56.3594 19.5762 56.5117 20.3965 56.7812 21.1113C57.0625 21.8145 57.4844 22.3711 58.0469 22.7812C58.6211 23.1797 59.3652 23.3789 60.2793 23.3789C60.9941 23.3789 61.5859 23.2383 62.0547 22.957C62.5234 22.6758 62.8867 22.2773 63.1445 21.7617C63.4141 21.2461 63.6016 20.6426 63.707 19.9512C63.8125 19.248 63.8652 18.4863 63.8652 17.666ZM80.8281 27.3516C79.3516 27.3516 78.0273 27.1172 76.8555 26.6484C75.6836 26.168 74.6875 25.5059 73.8672 24.6621C73.0586 23.8184 72.4375 22.8398 72.0039 21.7266C71.5703 20.6016 71.3535 19.4062 71.3535 18.1406V17.4375C71.3535 15.9961 71.5586 14.6777 71.9688 13.4824C72.3789 12.2871 72.9648 11.25 73.7266 10.3711C74.5 9.49219 75.4375 8.81836 76.5391 8.34961C77.6406 7.86914 78.8828 7.62891 80.2656 7.62891C81.6133 7.62891 82.8086 7.85156 83.8516 8.29688C84.8945 8.74219 85.7676 9.375 86.4707 10.1953C87.1855 11.0156 87.7246 12 88.0879 13.1484C88.4512 14.2852 88.6328 15.5508 88.6328 16.9453V19.0547H73.5156V15.6797H83.6582V15.293C83.6582 14.5898 83.5293 13.9629 83.2715 13.4121C83.0254 12.8496 82.6504 12.4043 82.1465 12.0762C81.6426 11.748 80.998 11.584 80.2129 11.584C79.5449 11.584 78.9707 11.7305 78.4902 12.0234C78.0098 12.3164 77.6172 12.7266 77.3125 13.2539C77.0195 13.7812 76.7969 14.4023 76.6445 15.1172C76.5039 15.8203 76.4336 16.5938 76.4336 17.4375V18.1406C76.4336 18.9023 76.5391 19.6055 76.75 20.25C76.9727 20.8945 77.2832 21.4512 77.6816 21.9199C78.0918 22.3887 78.584 22.752 79.1582 23.0098C79.7441 23.2676 80.4062 23.3965 81.1445 23.3965C82.0586 23.3965 82.9082 23.2207 83.6934 22.8691C84.4902 22.5059 85.1758 21.9609 85.75 21.2344L88.2109 23.9062C87.8125 24.4805 87.2676 25.0312 86.5762 25.5586C85.8965 26.0859 85.0762 26.5195 84.1152 26.8594C83.1543 27.1875 82.0586 27.3516 80.8281 27.3516ZM96.5781 12.1289V27H91.5156V7.98047H96.2793L96.5781 12.1289ZM102.309 7.85742L102.221 12.5508C101.975 12.5156 101.676 12.4863 101.324 12.4629C100.984 12.4277 100.674 12.4102 100.393 12.4102C99.6777 12.4102 99.0566 12.5039 98.5293 12.6914C98.0137 12.8672 97.5801 13.1309 97.2285 13.4824C96.8887 13.834 96.6309 14.2617 96.4551 14.7656C96.291 15.2695 96.1973 15.8438 96.1738 16.4883L95.1543 16.1719C95.1543 14.9414 95.2773 13.8105 95.5234 12.7793C95.7695 11.7363 96.127 10.8281 96.5957 10.0547C97.0762 9.28125 97.6621 8.68359 98.3535 8.26172C99.0449 7.83984 99.8359 7.62891 100.727 7.62891C101.008 7.62891 101.295 7.65234 101.588 7.69922C101.881 7.73438 102.121 7.78711 102.309 7.85742ZM124 15.7676H117.426L117.391 12.1465H122.91C123.883 12.1465 124.68 12.0234 125.301 11.7773C125.922 11.5195 126.385 11.1504 126.689 10.6699C127.006 10.1777 127.164 9.58008 127.164 8.87695C127.164 8.08008 127.012 7.43555 126.707 6.94336C126.414 6.45117 125.951 6.09375 125.318 5.87109C124.697 5.64844 123.895 5.53711 122.91 5.53711H119.254V27H113.98V1.40625H122.91C124.398 1.40625 125.729 1.54688 126.9 1.82812C128.084 2.10938 129.086 2.53711 129.906 3.11133C130.727 3.68555 131.354 4.41211 131.787 5.29102C132.221 6.1582 132.438 7.18945 132.438 8.38477C132.438 9.43945 132.197 10.4121 131.717 11.3027C131.248 12.1934 130.504 12.9199 129.484 13.4824C128.477 14.0449 127.158 14.3555 125.529 14.4141L124 15.7676ZM123.771 27H115.984L118.041 22.8867H123.771C124.697 22.8867 125.453 22.7402 126.039 22.4473C126.625 22.1426 127.059 21.7324 127.34 21.2168C127.621 20.7012 127.762 20.1094 127.762 19.4414C127.762 18.6914 127.633 18.041 127.375 17.4902C127.129 16.9395 126.73 16.5176 126.18 16.2246C125.629 15.9199 124.902 15.7676 124 15.7676H118.92L118.955 12.1465H125.283L126.496 13.5703C128.055 13.5469 129.309 13.8223 130.258 14.3965C131.219 14.959 131.916 15.6914 132.35 16.5938C132.795 17.4961 133.018 18.4629 133.018 19.4941C133.018 21.1348 132.66 22.5176 131.945 23.6426C131.23 24.7559 130.182 25.5938 128.799 26.1562C127.428 26.7188 125.752 27 123.771 27ZM146.922 22.7109V14.2383C146.922 13.6289 146.822 13.1074 146.623 12.6738C146.424 12.2285 146.113 11.8828 145.691 11.6367C145.281 11.3906 144.748 11.2676 144.092 11.2676C143.529 11.2676 143.043 11.3672 142.633 11.5664C142.223 11.7539 141.906 12.0293 141.684 12.3926C141.461 12.7441 141.35 13.1602 141.35 13.6406H136.287C136.287 12.832 136.475 12.0645 136.85 11.3379C137.225 10.6113 137.77 9.97266 138.484 9.42188C139.199 8.85938 140.049 8.41992 141.033 8.10352C142.029 7.78711 143.143 7.62891 144.373 7.62891C145.85 7.62891 147.162 7.875 148.311 8.36719C149.459 8.85938 150.361 9.59766 151.018 10.582C151.686 11.5664 152.02 12.7969 152.02 14.2734V22.4121C152.02 23.4551 152.084 24.3105 152.213 24.9785C152.342 25.6348 152.529 26.209 152.775 26.7012V27H147.66C147.414 26.4844 147.227 25.8398 147.098 25.0664C146.98 24.2812 146.922 23.4961 146.922 22.7109ZM147.59 15.416L147.625 18.2812H144.795C144.127 18.2812 143.547 18.3574 143.055 18.5098C142.562 18.6621 142.158 18.8789 141.842 19.1602C141.525 19.4297 141.291 19.7461 141.139 20.1094C140.998 20.4727 140.928 20.8711 140.928 21.3047C140.928 21.7383 141.027 22.1309 141.227 22.4824C141.426 22.8223 141.713 23.0918 142.088 23.291C142.463 23.4785 142.902 23.5723 143.406 23.5723C144.168 23.5723 144.83 23.4199 145.393 23.1152C145.955 22.8105 146.389 22.4355 146.693 21.9902C147.01 21.5449 147.174 21.123 147.186 20.7246L148.521 22.8691C148.334 23.3496 148.076 23.8477 147.748 24.3633C147.432 24.8789 147.027 25.3652 146.535 25.8223C146.043 26.2676 145.451 26.6367 144.76 26.9297C144.068 27.2109 143.248 27.3516 142.299 27.3516C141.092 27.3516 139.996 27.1113 139.012 26.6309C138.039 26.1387 137.266 25.4648 136.691 24.6094C136.129 23.7422 135.848 22.7578 135.848 21.6562C135.848 20.6602 136.035 19.7754 136.41 19.002C136.785 18.2285 137.336 17.5781 138.062 17.0508C138.801 16.5117 139.721 16.1074 140.822 15.8379C141.924 15.5566 143.201 15.416 144.654 15.416H147.59ZM166.205 21.7441C166.205 21.3809 166.1 21.0527 165.889 20.7598C165.678 20.4668 165.285 20.1973 164.711 19.9512C164.148 19.6934 163.334 19.459 162.268 19.248C161.307 19.0371 160.41 18.7734 159.578 18.457C158.758 18.1289 158.043 17.7363 157.434 17.2793C156.836 16.8223 156.367 16.2832 156.027 15.6621C155.688 15.0293 155.518 14.3086 155.518 13.5C155.518 12.7031 155.688 11.9531 156.027 11.25C156.379 10.5469 156.877 9.92578 157.521 9.38672C158.178 8.83594 158.975 8.4082 159.912 8.10352C160.861 7.78711 161.928 7.62891 163.111 7.62891C164.764 7.62891 166.182 7.89258 167.365 8.41992C168.561 8.94727 169.475 9.67383 170.107 10.5996C170.752 11.5137 171.074 12.5566 171.074 13.7285H166.012C166.012 13.2363 165.906 12.7969 165.695 12.4102C165.496 12.0117 165.18 11.7012 164.746 11.4785C164.324 11.2441 163.773 11.127 163.094 11.127C162.531 11.127 162.045 11.2266 161.635 11.4258C161.225 11.6133 160.908 11.8711 160.686 12.1992C160.475 12.5156 160.369 12.8672 160.369 13.2539C160.369 13.5469 160.428 13.8105 160.545 14.0449C160.674 14.2676 160.879 14.4727 161.16 14.6602C161.441 14.8477 161.805 15.0234 162.25 15.1875C162.707 15.3398 163.27 15.4805 163.938 15.6094C165.309 15.8906 166.533 16.2598 167.611 16.7168C168.689 17.1621 169.545 17.7715 170.178 18.5449C170.811 19.3066 171.127 20.3086 171.127 21.5508C171.127 22.3945 170.939 23.168 170.564 23.8711C170.189 24.5742 169.65 25.1895 168.947 25.7168C168.244 26.2324 167.4 26.6367 166.416 26.9297C165.443 27.2109 164.348 27.3516 163.129 27.3516C161.359 27.3516 159.859 27.0352 158.629 26.4023C157.41 25.7695 156.484 24.9668 155.852 23.9941C155.23 23.0098 154.92 22.002 154.92 20.9707H159.719C159.742 21.6621 159.918 22.2188 160.246 22.6406C160.586 23.0625 161.014 23.3672 161.529 23.5547C162.057 23.7422 162.625 23.8359 163.234 23.8359C163.891 23.8359 164.436 23.748 164.869 23.5723C165.303 23.3848 165.631 23.1387 165.854 22.834C166.088 22.5176 166.205 22.1543 166.205 21.7441ZM183.73 7.98047V11.5664H172.656V7.98047H183.73ZM175.398 3.28711H180.461V21.2695C180.461 21.8203 180.531 22.2422 180.672 22.5352C180.824 22.8281 181.047 23.0332 181.34 23.1504C181.633 23.2559 182.002 23.3086 182.447 23.3086C182.764 23.3086 183.045 23.2969 183.291 23.2734C183.549 23.2383 183.766 23.2031 183.941 23.168L183.959 26.8945C183.525 27.0352 183.057 27.1465 182.553 27.2285C182.049 27.3105 181.492 27.3516 180.883 27.3516C179.77 27.3516 178.797 27.1699 177.965 26.8066C177.145 26.4316 176.512 25.834 176.066 25.0137C175.621 24.1934 175.398 23.1152 175.398 21.7793V3.28711ZM185.348 17.6836V17.3145C185.348 15.9199 185.547 14.6367 185.945 13.4648C186.344 12.2812 186.924 11.2559 187.686 10.3887C188.447 9.52148 189.385 8.84766 190.498 8.36719C191.611 7.875 192.889 7.62891 194.33 7.62891C195.771 7.62891 197.055 7.875 198.18 8.36719C199.305 8.84766 200.248 9.52148 201.01 10.3887C201.783 11.2559 202.369 12.2812 202.768 13.4648C203.166 14.6367 203.365 15.9199 203.365 17.3145V17.6836C203.365 19.0664 203.166 20.3496 202.768 21.5332C202.369 22.7051 201.783 23.7305 201.01 24.6094C200.248 25.4766 199.311 26.1504 198.197 26.6309C197.084 27.1113 195.807 27.3516 194.365 27.3516C192.924 27.3516 191.641 27.1113 190.516 26.6309C189.402 26.1504 188.459 25.4766 187.686 24.6094C186.924 23.7305 186.344 22.7051 185.945 21.5332C185.547 20.3496 185.348 19.0664 185.348 17.6836ZM190.41 17.3145V17.6836C190.41 18.4805 190.48 19.2246 190.621 19.916C190.762 20.6074 190.984 21.2168 191.289 21.7441C191.605 22.2598 192.016 22.6641 192.52 22.957C193.023 23.25 193.639 23.3965 194.365 23.3965C195.068 23.3965 195.672 23.25 196.176 22.957C196.68 22.6641 197.084 22.2598 197.389 21.7441C197.693 21.2168 197.916 20.6074 198.057 19.916C198.209 19.2246 198.285 18.4805 198.285 17.6836V17.3145C198.285 16.541 198.209 15.8145 198.057 15.1348C197.916 14.4434 197.688 13.834 197.371 13.3066C197.066 12.7676 196.662 12.3457 196.158 12.041C195.654 11.7363 195.045 11.584 194.33 11.584C193.615 11.584 193.006 11.7363 192.502 12.041C192.01 12.3457 191.605 12.7676 191.289 13.3066C190.984 13.834 190.762 14.4434 190.621 15.1348C190.48 15.8145 190.41 16.541 190.41 17.3145ZM216.76 21.7441C216.76 21.3809 216.654 21.0527 216.443 20.7598C216.232 20.4668 215.84 20.1973 215.266 19.9512C214.703 19.6934 213.889 19.459 212.822 19.248C211.861 19.0371 210.965 18.7734 210.133 18.457C209.312 18.1289 208.598 17.7363 207.988 17.2793C207.391 16.8223 206.922 16.2832 206.582 15.6621C206.242 15.0293 206.072 14.3086 206.072 13.5C206.072 12.7031 206.242 11.9531 206.582 11.25C206.934 10.5469 207.432 9.92578 208.076 9.38672C208.732 8.83594 209.529 8.4082 210.467 8.10352C211.416 7.78711 212.482 7.62891 213.666 7.62891C215.318 7.62891 216.736 7.89258 217.92 8.41992C219.115 8.94727 220.029 9.67383 220.662 10.5996C221.307 11.5137 221.629 12.5566 221.629 13.7285H216.566C216.566 13.2363 216.461 12.7969 216.25 12.4102C216.051 12.0117 215.734 11.7012 215.301 11.4785C214.879 11.2441 214.328 11.127 213.648 11.127C213.086 11.127 212.6 11.2266 212.189 11.4258C211.779 11.6133 211.463 11.8711 211.24 12.1992C211.029 12.5156 210.924 12.8672 210.924 13.2539C210.924 13.5469 210.982 13.8105 211.1 14.0449C211.229 14.2676 211.434 14.4727 211.715 14.6602C211.996 14.8477 212.359 15.0234 212.805 15.1875C213.262 15.3398 213.824 15.4805 214.492 15.6094C215.863 15.8906 217.088 16.2598 218.166 16.7168C219.244 17.1621 220.1 17.7715 220.732 18.5449C221.365 19.3066 221.682 20.3086 221.682 21.5508C221.682 22.3945 221.494 23.168 221.119 23.8711C220.744 24.5742 220.205 25.1895 219.502 25.7168C218.799 26.2324 217.955 26.6367 216.971 26.9297C215.998 27.2109 214.902 27.3516 213.684 27.3516C211.914 27.3516 210.414 27.0352 209.184 26.4023C207.965 25.7695 207.039 24.9668 206.406 23.9941C205.785 23.0098 205.475 22.002 205.475 20.9707H210.273C210.297 21.6621 210.473 22.2188 210.801 22.6406C211.141 23.0625 211.568 23.3672 212.084 23.5547C212.611 23.7422 213.18 23.8359 213.789 23.8359C214.445 23.8359 214.99 23.748 215.424 23.5723C215.857 23.3848 216.186 23.1387 216.408 22.834C216.643 22.5176 216.76 22.1543 216.76 21.7441Z" fill="black"/>
</svg>
